# xmcd CD database file
#
# Track frame offsets:
#	150
#	21795
#	44268
#	64464
#	87033
#	108915
#	138495
#	157726
#	178801
#	198572
#	214070
#	233132
#
# Disc length: 3351 seconds
#
# Revision: 0
# Processed by: cddbd v1.5.2PL0 Copyright (c) Steve Scherf et al.
# Submitted via: CDex 1.70beta2
#
DISCID=a10d150c
DTITLE=Carmel - World's Gone Crazy (2012 edition with bonus tracks)
DYEAR=1995
DGENRE=Jazz
TTITLE0=If I Don't Have You
TTITLE1=Don't Lose Your Love
TTITLE2=Save Our World (From Drowning)
TTITLE3=Backroom
TTITLE4=Jacqueline
TTITLE5=World's Gone Crazy
TTITLE6=Jack Dodd
TTITLE7=Africa
TTITLE8=If You Don't Come Back
TTITLE9=Lean On Me (B side of If You Don't Come Back)
TTITLE10=The Garden (B side of If You Don't Come Back)
TTITLE11=Good Day
EXTD=YEAR: 1995
EXTT0=
EXTT1=
EXTT2=
EXTT3=
EXTT4=
EXTT5=
EXTT6=
EXTT7=
EXTT8=
EXTT9=
EXTT10=
EXTT11=
PLAYORDER=
